<?xml version="1.0" encoding="utf-8"?>
<!-- Generator: Adobe Illustrator 16.0.0, SVG Export Plug-In . SVG Version: 6.00 Build 0)  -->
<!DOCTYPE svg PUBLIC "-//W3C//DTD SVG 1.1//EN" "http://www.w3.org/Graphics/SVG/1.1/DTD/svg11.dtd">
<svg version="1.1" id="Layer_1" xmlns="http://www.w3.org/2000/svg" xmlns:xlink="http://www.w3.org/1999/xlink" x="0px" y="0px"
	 width="55.869px" height="76.566px" viewBox="0 0 55.869 76.566" enable-background="new 0 0 55.869 76.566" xml:space="preserve">
<g>
	<path fill-rule="evenodd" clip-rule="evenodd" fill="#FFFFFF" d="M8.352,32.045c4.021-4.203,10.086-0.072,15.476-3.045
		c-1.401-0.904-2.238-1.815-3.205-1.985c-1.616-0.284-3.378,0.185-4.965-0.17c-2.412-0.54-5.696,1.922-7.181-1.957
		c2.494-0.596,4.962-1.352,7.488-1.742c2.313-0.358,4.687-0.324,7.034-0.462c0.032-0.76,0.064-1.521,0.096-2.281
		c-4.734-0.292-9.468-0.584-14.164-0.874C8.493,8.937,16.481,0.289,26.719,0.009c11.23-0.307,19.413,7.632,19.683,19.478
		c-4.762,0.308-9.563,0.618-14.364,0.928c0.017,0.674,0.035,1.349,0.052,2.023c1.795,0.22,3.641,0.249,5.375,0.703
		c3.056,0.799,6.922-2.108,9.237,2.002c-3.141,0.589-6.274,1.223-9.426,1.743c-1.138,0.188-2.352-0.046-3.472,0.19
		c-0.852,0.181-1.611,0.802-2.412,1.227c0.283,0.642,0.565,1.283,0.848,1.925c3.691,0,7.392-0.152,11.066,0.088
		c1.165,0.077,2.261,1.201,3.389,1.846c-1.103,0.618-2.165,1.667-3.315,1.773c-3.751,0.348-7.534,0.352-11.304,0.488
		c-0.03,0.84-0.061,1.681-0.09,2.521c2.2,0.228,4.395,0.554,6.601,0.656c2.473,0.114,4.955,0.026,7.909,0.026
		c0.93,8.02-1.168,14.503-7.274,19.278c-6.357,4.972-13.476,5.632-20.575,1.772C10.766,54.393,8.034,47.25,8.492,38.06
		c4.951-0.337,9.793-0.667,14.635-0.997c0.006-0.814,0.012-1.629,0.017-2.443c-4.826-0.332-9.651-0.663-14.478-0.995
		C8.562,33.099,8.457,32.572,8.352,32.045z"/>
	<path fill-rule="evenodd" clip-rule="evenodd" fill="#FFFFFF" d="M2.557,30.917c0.192,1.634,0.408,3.266,0.571,4.903
		c0.443,4.445,0.222,9.074,1.418,13.304c3.315,11.721,14.41,18.591,26.489,17.028C42.642,64.65,51.52,54.417,52.001,41.863
		c0.139-3.628,0.021-7.265,0.604-10.863c9.133,10.553-2.027,31.948-19.446,38.452c-0.126,2.183-0.259,4.471-0.413,7.115
		c-3.335,0-6.564,0-10.206,0c-0.162-2.203-0.328-4.458-0.523-7.112C11.099,66.073,3.431,59.156,0.856,47.52
		c-1.225-5.536-0.964-11.076-0.28-16.553C1.236,30.95,1.896,30.934,2.557,30.917z"/>
</g>
</svg>
